<svg width="18" height="18" viewBox="0 0 18 18" fill="none" xmlns="http://www.w3.org/2000/svg">
<path d="M16.4972 0.553711H1.48439C0.970333 0.55402 0.553608 0.970951 0.553711 1.48521V16.498C0.55402 17.0121 0.970951 17.4288 1.48521 17.4287H9.56799V10.9028H7.37622V8.34851H9.56799V6.46872C9.56799 4.28879 10.8988 3.10226 12.8434 3.10226C13.7748 3.10226 14.5752 3.17168 14.8085 3.20269V5.48108H13.4676C12.4096 5.48108 12.2047 5.98381 12.2047 6.72168V8.34851H14.7343L14.4047 10.9028H12.2047V17.4287H16.4972C17.0116 17.4288 17.4286 17.012 17.4287 16.4976C17.4287 16.4975 17.4287 16.4974 17.4287 16.4972V1.48439C17.4285 0.970333 17.0115 0.553608 16.4972 0.553711Z" fill="black"/>
</svg>
