<svg width="18" height="18" viewBox="0 0 18 18" fill="none" xmlns="http://www.w3.org/2000/svg">
<g clip-path="url(#clip0)">
<path d="M17.9826 5.29205C17.9404 4.33564 17.7857 3.67812 17.5642 3.10836C17.3356 2.50359 16.984 1.96213 16.5233 1.51201C16.0732 1.05489 15.5282 0.699691 14.9304 0.474702C14.3573 0.253147 13.7033 0.0984842 12.7469 0.0563159C11.7833 0.0105764 11.4774 0 9.03358 0C6.58974 0 6.28385 0.0105764 5.32387 0.0527447C4.36746 0.0949129 3.70994 0.249713 3.14033 0.471131C2.53541 0.699691 1.99396 1.05132 1.54384 1.51201C1.08672 1.96213 0.731657 2.50716 0.506531 3.10493C0.284976 3.67812 0.130314 4.33207 0.0881457 5.28848C0.0424062 6.25203 0.0318298 6.55792 0.0318298 9.00176C0.0318298 11.4456 0.0424062 11.7515 0.0845744 12.7115C0.126743 13.6679 0.281543 14.3254 0.503097 14.8952C0.731657 15.4999 1.08672 16.0414 1.54384 16.4915C1.99396 16.9486 2.53898 17.3038 3.13676 17.5288C3.70994 17.7504 4.36389 17.905 5.32044 17.9472C6.28028 17.9895 6.58631 17.9999 9.03014 17.9999C11.474 17.9999 11.7799 17.9895 12.7398 17.9472C13.6963 17.905 14.3538 17.7504 14.9234 17.5288C16.1331 17.0611 17.0895 16.1047 17.5572 14.8952C17.7786 14.322 17.9334 13.6679 17.9756 12.7115C18.0177 11.7515 18.0283 11.4456 18.0283 9.00176C18.0283 6.55792 18.0247 6.25203 17.9826 5.29205ZM16.3616 12.6411C16.3229 13.5202 16.1753 13.9949 16.0522 14.3114C15.7497 15.0956 15.1274 15.7179 14.3432 16.0204C14.0267 16.1434 13.5486 16.2911 12.673 16.3297C11.7236 16.372 11.4388 16.3824 9.03715 16.3824C6.63548 16.3824 6.34717 16.372 5.4012 16.3297C4.52213 16.2911 4.04743 16.1434 3.73096 16.0204C3.34073 15.8761 2.98553 15.6476 2.69722 15.3487C2.39833 15.0568 2.16977 14.7052 2.02555 14.315C1.90248 13.9985 1.75482 13.5202 1.71622 12.6447C1.67392 11.6953 1.66348 11.4104 1.66348 9.00876C1.66348 6.60709 1.67392 6.31878 1.71622 5.37295C1.75482 4.49387 1.90248 4.01917 2.02555 3.7027C2.16977 3.31234 2.39833 2.95727 2.70079 2.66883C2.99253 2.36994 3.34416 2.14138 3.73453 1.99729C4.051 1.87422 4.52927 1.72656 5.40477 1.68783C6.35418 1.64566 6.63905 1.63508 9.04058 1.63508C11.4458 1.63508 11.7306 1.64566 12.6765 1.68783C13.5556 1.72656 14.0303 1.87422 14.3468 1.99729C14.737 2.14138 15.0922 2.36994 15.3805 2.66883C15.6794 2.96071 15.908 3.31234 16.0522 3.7027C16.1753 4.01917 16.3229 4.49731 16.3616 5.37295C16.4038 6.32236 16.4144 6.60709 16.4144 9.00876C16.4144 11.4104 16.4038 11.6917 16.3616 12.6411Z" fill="black"/>
<path d="M9.0335 4.37781C6.48074 4.37781 4.40955 6.44886 4.40955 9.00176C4.40955 11.5547 6.48074 13.6257 9.0335 13.6257C11.5864 13.6257 13.6574 11.5547 13.6574 9.00176C13.6574 6.44886 11.5864 4.37781 9.0335 4.37781ZM9.0335 12.0012C7.3774 12.0012 6.03405 10.658 6.03405 9.00176C6.03405 7.34552 7.3774 6.00232 9.0335 6.00232C10.6897 6.00232 12.0329 7.34552 12.0329 9.00176C12.0329 10.658 10.6897 12.0012 9.0335 12.0012V12.0012Z" fill="black"/>
<path d="M14.9201 4.19496C14.9201 4.79109 14.4367 5.27445 13.8405 5.27445C13.2443 5.27445 12.761 4.79109 12.761 4.19496C12.761 3.5987 13.2443 3.11548 13.8405 3.11548C14.4367 3.11548 14.9201 3.5987 14.9201 4.19496Z" fill="black"/>
</g>
<defs>
<clipPath id="clip0">
<rect width="18" height="18" fill="white"/>
</clipPath>
</defs>
</svg>
